REM DIRINDEX 1\2,1\3,1\4,1\5
REM DIRNAME "folder01","folder02","folder03","folder04","folder05"
TITLE ""
FILE "P1Q_j_1828-1841.mp3" MP3
  TRACK 01 AUDIO
    TITLE "0:"
    INDEX 01 00:00:00
  TRACK 02 AUDIO
    TITLE "3:cjc173_0686"
    INDEX 01 00:00:10
  TRACK 03 AUDIO
    TITLE "0:"
    INDEX 01 00:01:43
  TRACK 04 AUDIO
    TITLE "4:cjc173_0687"
    INDEX 01 00:01:63
  TRACK 05 AUDIO
    TITLE "0:"
    INDEX 01 00:07:10
  TRACK 06 AUDIO
    TITLE "5:cjc173_0688"
    INDEX 01 00:07:30
  TRACK 07 AUDIO
    TITLE "0:"
    INDEX 01 00:10:58
  TRACK 08 AUDIO
    TITLE "3:cjc173_0689"
    INDEX 01 00:11:28
  TRACK 09 AUDIO
    TITLE "0:"
    INDEX 01 00:12:61
  TRACK 10 AUDIO
    TITLE "4:cjc173_0690"
    INDEX 01 00:13:07
  TRACK 11 AUDIO
    TITLE "0:"
    INDEX 01 00:18:42
  TRACK 12 AUDIO
    TITLE "5:cjc173_0691"
    INDEX 01 00:18:61
  TRACK 13 AUDIO
    TITLE "0:"
    INDEX 01 00:22:26
  TRACK 14 AUDIO
    TITLE "3:cjc173_0692"
    INDEX 01 00:22:73
  TRACK 15 AUDIO
    TITLE "0:"
    INDEX 01 00:24:56
  TRACK 16 AUDIO
    TITLE "4:cjc173_0693"
    INDEX 01 00:24:75
  TRACK 17 AUDIO
    TITLE "0:"
    INDEX 01 00:29:18
  TRACK 18 AUDIO
    TITLE "5:cjc173_0694"
    INDEX 01 00:29:37
  TRACK 19 AUDIO
    TITLE "0:"
    INDEX 01 00:33:33
  TRACK 20 AUDIO
    TITLE "3:cjc173_0695"
    INDEX 01 00:34:03
  TRACK 21 AUDIO
    TITLE "0:"
    INDEX 01 00:35:28
  TRACK 22 AUDIO
    TITLE "4:cjc173_0696"
    INDEX 01 00:35:52
  TRACK 23 AUDIO
    TITLE "0:"
    INDEX 01 00:41:74
  TRACK 24 AUDIO
    TITLE "5:cjc173_0697"
    INDEX 01 00:42:19
  TRACK 25 AUDIO
    TITLE "0:"
    INDEX 01 00:46:22
  TRACK 26 AUDIO
    TITLE "3:cjc173_0698"
    INDEX 01 00:46:67
  TRACK 27 AUDIO
    TITLE "0:"
    INDEX 01 00:48:33
  TRACK 28 AUDIO
    TITLE "4:cjc173_0699"
    INDEX 01 00:48:54
  TRACK 29 AUDIO
    TITLE "0:"
    INDEX 01 00:52:70
  TRACK 30 AUDIO
    TITLE "5:cjc173_0700"
    INDEX 01 00:53:14
  TRACK 31 AUDIO
    TITLE "0:"
    INDEX 01 00:57:46
  TRACK 32 AUDIO
    TITLE "3:cjc173_0701"
    INDEX 01 00:58:16
  TRACK 33 AUDIO
    TITLE "0:"
    INDEX 01 00:59:70
  TRACK 34 AUDIO
    TITLE "4:cjc173_0702"
    INDEX 01 01:00:14
  TRACK 35 AUDIO
    TITLE "0:"
    INDEX 01 01:04:46
  TRACK 36 AUDIO
    TITLE "5:cjc173_0703"
    INDEX 01 01:04:65
  TRACK 37 AUDIO
    TITLE "0:"
    INDEX 01 01:08:49
  TRACK 38 AUDIO
    TITLE "3:cjc173_0704"
    INDEX 01 01:09:21
  TRACK 39 AUDIO
    TITLE "0:"
    INDEX 01 01:10:46
  TRACK 40 AUDIO
    TITLE "4:cjc173_0705"
    INDEX 01 01:10:68
  TRACK 41 AUDIO
    TITLE "0:"
    INDEX 01 01:16:72
  TRACK 42 AUDIO
    TITLE "5:cjc173_0706"
    INDEX 01 01:17:17
  TRACK 43 AUDIO
    TITLE "0:"
    INDEX 01 01:21:01
  TRACK 44 AUDIO
    TITLE "3:cjc173_0707"
    INDEX 01 01:21:46
  TRACK 45 AUDIO
    TITLE "0:"
    INDEX 01 01:23:06
  TRACK 46 AUDIO
    TITLE "4:cjc173_0708"
    INDEX 01 01:23:29
  TRACK 47 AUDIO
    TITLE "0:"
    INDEX 01 01:27:09
  TRACK 48 AUDIO
    TITLE "5:cjc173_0709"
    INDEX 01 01:27:29
  TRACK 49 AUDIO
    TITLE "0:"
    INDEX 01 01:31:15
  TRACK 50 AUDIO
    TITLE "3:cjc173_0710"
    INDEX 01 01:31:60
  TRACK 51 AUDIO
    TITLE "0:"
    INDEX 01 01:32:75
  TRACK 52 AUDIO
    TITLE "4:cjc173_0711"
    INDEX 01 01:33:20
  TRACK 53 AUDIO
    TITLE "0:"
    INDEX 01 01:35:46
  TRACK 54 AUDIO
    TITLE "5:cjc173_0712"
    INDEX 01 01:35:66
  TRACK 55 AUDIO
    TITLE "0:"
    INDEX 01 01:40:20
  TRACK 56 AUDIO
    TITLE "3:cjc173_0713"
    INDEX 01 01:40:65
  TRACK 57 AUDIO
    TITLE "0:"
    INDEX 01 01:42:44
  TRACK 58 AUDIO
    TITLE "4:cjc173_0714"
    INDEX 01 01:42:64
  TRACK 59 AUDIO
    TITLE "0:"
    INDEX 01 01:47:63
  TRACK 60 AUDIO
    TITLE "5:cjc173_0715"
    INDEX 01 01:48:06
  TRACK 61 AUDIO
    TITLE "0:"
    INDEX 01 01:51:14
  TRACK 62 AUDIO
    TITLE "3:cjc173_0716"
    INDEX 01 01:51:61
  TRACK 63 AUDIO
    TITLE "0:"
    INDEX 01 01:53:26
  TRACK 64 AUDIO
    TITLE "4:cjc173_0717"
    INDEX 01 01:53:48
  TRACK 65 AUDIO
    TITLE "0:"
    INDEX 01 01:56:07
  TRACK 66 AUDIO
    TITLE "5:cjc173_0718"
    INDEX 01 01:56:27
  TRACK 67 AUDIO
    TITLE "0:"
    INDEX 01 02:01:16
  TRACK 68 AUDIO
    TITLE "3:cjc173_0719"
    INDEX 01 02:01:65
  TRACK 69 AUDIO
    TITLE "0:"
    INDEX 01 02:03:19
  TRACK 70 AUDIO
    TITLE "4:cjc173_0720"
    INDEX 01 02:03:42
  TRACK 71 AUDIO
    TITLE "0:"
    INDEX 01 02:06:72
  TRACK 72 AUDIO
    TITLE "5:cjc173_0721"
    INDEX 01 02:07:15
  TRACK 73 AUDIO
    TITLE "0:"
    INDEX 01 02:11:32
  TRACK 74 AUDIO
    TITLE "3:cjc173_0722"
    INDEX 01 02:12:08
  TRACK 75 AUDIO
    TITLE "0:"
    INDEX 01 02:13:31
  TRACK 76 AUDIO
    TITLE "4:cjc173_0723"
    INDEX 01 02:13:53
  TRACK 77 AUDIO
    TITLE "0:"
    INDEX 01 02:18:26
  TRACK 78 AUDIO
    TITLE "5:cjc173_0724"
    INDEX 01 02:18:46
  TRACK 79 AUDIO
    TITLE "0:"
    INDEX 01 02:22:67
  TRACK 80 AUDIO
    TITLE "3:cjc173_0725"
    INDEX 01 02:23:37
  TRACK 81 AUDIO
    TITLE "0:"
    INDEX 01 02:24:64
  TRACK 82 AUDIO
    TITLE "4:cjc173_0726"
    INDEX 01 02:25:11
  TRACK 83 AUDIO
    TITLE "0:"
    INDEX 01 02:29:01
  TRACK 84 AUDIO
    TITLE "5:cjc173_0727"
    INDEX 01 02:29:20
  TRACK 85 AUDIO
    TITLE "0:"
    INDEX 01 02:33:45
